<?xml version="1.0" encoding="UTF-8" standalone="no"?>
<svg
   width="96"
   height="96"
   viewBox="0 0 24 24"
   fill="none"
   stroke="currentColor"
   stroke-width="2.25"
   stroke-linecap="round"
   stroke-linejoin="round"
   class="lucide lucide-layers-arrow-down-icon lucide-layers-arrow-down"
   version="1.1"
   id="svg5"
   sodipodi:docname="FaxChainLogoREVbeige.svg"
   inkscape:version="1.4.2 (ebf0e940, 2025-05-08)"
   xmlns:inkscape="http://www.inkscape.org/namespaces/inkscape"
   xmlns:sodipodi="http://sodipodi.sourceforge.net/DTD/sodipodi-0.dtd"
   xmlns="http://www.w3.org/2000/svg"
   xmlns:svg="http://www.w3.org/2000/svg">
  <defs
     id="defs5" />
  <sodipodi:namedview
     id="namedview5"
     pagecolor="#ffffff"
     bordercolor="#000000"
     borderopacity="0.25"
     inkscape:showpageshadow="2"
     inkscape:pageopacity="0.0"
     inkscape:pagecheckerboard="0"
     inkscape:deskcolor="#d1d1d1"
     inkscape:zoom="2"
     inkscape:cx="7.75"
     inkscape:cy="46.75"
     inkscape:window-width="1696"
     inkscape:window-height="900"
     inkscape:window-x="71"
     inkscape:window-y="0"
     inkscape:window-maximized="0"
     inkscape:current-layer="svg5" />
  <rect
     style="fill:#24251f;stroke:none;stroke-width:0.5625;fill-opacity:1"
     id="rect1"
     width="24.25"
     height="24.125"
     x="-0.125"
     y="-0.125" />
  <path
     id="path5"
     style="baseline-shift:baseline;display:inline;overflow:visible;opacity:1;vector-effect:none;fill:#c9c0ae;fill-opacity:1;stroke:none;stroke-width:1.96476;stroke-linecap:butt;stroke-linejoin:miter;enable-background:accumulate;stop-color:#000000;stop-opacity:1"
     d="m 13.917733,16.676751 a 0.78211147,0.78529197 0 0 0 -0.549767,0.239259 l -1.49101,1.544924 -1.492711,-1.544924 a 0.78211147,0.78529197 0 0 0 -1.1046413,-0.01709 0.78211147,0.78529197 0 0 0 -0.01702,1.110842 l 2.0526903,2.125979 a 0.78218969,0.7853705 0 0 0 1.123363,0 l 2.052692,-2.125979 A 0.78211147,0.78529197 0 0 0 14.474309,16.89892 0.78211147,0.78529197 0 0 0 13.917733,16.676751 Z M 11.876956,8.1694128 a 0.78211147,0.78529197 0 0 0 -0.78295,0.7861342 v 10.633318 a 0.78211147,0.78529197 0 0 0 0.78295,0.786135 0.78211147,0.78529197 0 0 0 0.781249,-0.786135 V 8.955547 A 0.78211147,0.78529197 0 0 0 11.876956,8.1694128 Z M 10.976563,4.8266337 5.119755,7.5866481 c -0.00121,5.514e-4 -0.0022,0.00116 -0.00341,0.00171 -1.118371,0.5127359 -1.1173865,2.217378 0.00341,2.7275399 l 3.6866744,1.73975 A 0.78211147,0.78529197 0 0 0 9.8463916,11.677964 0.78211147,0.78529197 0 0 0 9.4719371,10.633773 L 5.9078114,8.952129 11.640369,6.2485111 a 0.78218969,0.7853705 0 0 0 0.0017,0 c 0.152117,-0.071754 0.317718,-0.071953 0.46977,0 l 5.749579,2.7104538 -3.559021,1.6748081 a 0.78211147,0.78529197 0 0 0 -0.376155,1.044191 0.78211147,0.78529197 0 0 0 1.039961,0.377686 l 3.681568,-1.732913 c 1.122006,-0.5107134 1.122006,-2.2168307 0,-2.727544 l -5.86872,-2.7685593 c -0.569474,-0.2694822 -1.232683,-0.2687799 -1.802488,0 z m 7.739293,6.8872193 a 0.78211147,0.78529197 0 0 0 -0.755717,0.739991 l -3.450087,1.623538 a 0.78211147,0.78529197 0 0 0 -0.376157,1.044191 0.78211147,0.78529197 0 0 0 1.041664,0.377686 l 3.470512,-1.633791 c 0.532815,-0.248061 0.862273,-0.791338 0.857842,-1.372317 a 0.78211147,0.78529197 0 0 0 -0.788057,-0.779298 z m -13.6812043,0 a 0.78211147,0.78529197 0 0 0 -0.7846523,0.784425 c -0.00137,0.572368 0.3204692,1.104977 0.8425225,1.355227 a 0.78218969,0.7853705 0 0 0 0.00511,0.0017 l 3.4858307,1.642336 A 0.78211147,0.78529197 0 0 0 9.623421,15.119864 0.78211147,0.78529197 0 0 0 9.2472644,14.075673 L 5.76654,12.436754 c 0.036819,0.01765 0.047702,0.04638 0.047657,0.06494 a 0.78211147,0.78529197 0 0 0 -0.7795458,-0.78784 z" />
</svg>
